<?xml version="1.0" encoding="UTF-8"?>
<svg width="120px" height="120px" viewBox="0 0 120 120" version="1.1" xmlns="http://www.w3.org/2000/svg" xmlns:xlink="http://www.w3.org/1999/xlink">
    <title>github-action-icon</title>
    <g id="github-action-icon" stroke="none" stroke-width="1" fill="none" fill-rule="evenodd">
        <rect id="background" fill="#161616" x="0" y="0" width="120" height="120"></rect>
        <path d="M35.6555625,20.15625 C44.2158281,20.15625 51.1546875,27.0953438 51.1546875,35.6555625 C51.1546875,44.2158281 44.2158281,51.1546875 35.6555625,51.1546875 C27.0953438,51.1546875 20.15625,44.2158281 20.15625,35.6555625 C20.15625,27.0953438 27.0953438,20.15625 35.6555625,20.15625 Z" id="Path" stroke="#FFFFFF" stroke-width="3.4534801" stroke-linecap="round" stroke-linejoin="round"></path>
        <path d="M58.0434375,51.1546875 C63.75,51.1546875 68.3765625,55.78125 68.3765625,61.4878125 C68.3765625,67.194375 63.75,71.8204688 58.0434375,71.8204688 C52.336875,71.8204688 47.7107813,67.194375 47.7107813,61.4878125 C47.7107813,55.78125 52.336875,51.1546875 58.0434375,51.1546875 Z" id="Path" stroke="#FFFFFF" stroke-width="3.4534801" stroke-linecap="round" stroke-linejoin="round"></path>
        <path d="M58.0434375,78.7092187 C63.75,78.7092187 68.3765625,83.3353125 68.3765625,89.0423437 C68.3765625,94.7489062 63.75,99.375 58.0434375,99.375 C52.336875,99.375 47.7107813,94.7489062 47.7107813,89.0423437 C47.7107813,83.3353125 52.336875,78.7092187 58.0434375,78.7092187 Z" id="Path" stroke="#FFFFFF" stroke-width="3.4534801" stroke-linecap="round" stroke-linejoin="round"></path>
        <path d="M89.0423437,78.7092187 C94.7489062,78.7092187 99.375,83.3353125 99.375,89.0423437 C99.375,94.7489062 94.7489062,99.375 89.0423437,99.375 C83.3353125,99.375 78.7092187,94.7489062 78.7092187,89.0423437 C78.7092187,83.3353125 83.3353125,78.7092187 89.0423437,78.7092187 Z" id="Path" stroke="#BCBCBC" stroke-width="3.4534801" stroke-linecap="round" stroke-linejoin="round"></path>
        <polyline id="Path" stroke="#FFFFFF" stroke-width="3.4534801" stroke-linecap="round" stroke-linejoin="round" points="61.550625 59.08875 56.265 64.3673438 53.6976563 61.8089063"></polyline>
        <path d="M89.0423437,51.1546875 C94.7489062,51.1546875 99.375,55.78125 99.375,61.4878125 C99.375,67.194375 94.7489062,71.8204688 89.0423437,71.8204688 C83.3353125,71.8204688 78.7092187,67.194375 78.7092187,61.4878125 C78.7092187,55.78125 83.3353125,51.1546875 89.0423437,51.1546875 Z" id="Path" stroke="#FFFFFF" stroke-width="3.4534801" stroke-linecap="round" stroke-linejoin="round"></path>
        <polyline id="Path" stroke="#FFFFFF" stroke-width="3.4534801" stroke-linecap="round" stroke-linejoin="round" points="92.5490625 59.08875 87.2634375 64.3673438 84.6965625 61.8089063"></polyline>
        <path d="M30.4891406,30.1655625 C30.4891406,28.8101719 31.9823906,27.9860156 33.1291875,28.7084062 L41.9348437,34.2555 C43.0117031,34.9338281 43.0060313,36.5055938 41.9245313,37.1762344 L33.1187813,42.6362813 C31.9715625,43.3475156 30.4891406,42.5224219 30.4891406,41.1726094 L30.4891406,30.1655625 Z" id="Path" stroke="#FFFFFF" stroke-width="3.4534801" stroke-linecap="round" stroke-linejoin="round"></path>
        <path d="M33.9334688,51.1546875 L33.9334688,76.9870312 C33.9334688,83.6446875 39.4050469,89.041875 45.9884531,89.041875 L47.7107813,89.041875" id="Path" stroke="#FFFFFF" stroke-width="3.4534801" stroke-linecap="round" stroke-linejoin="round"></path>
        <path d="M47.6226562,63.2095312 C48.57375,63.2095312 49.3448438,62.4389062 49.3448438,61.4873437 C49.3448438,60.53625 48.57375,59.765625 47.6226562,59.765625 L47.6226562,63.2095312 Z M32.2112344,51.2151562 C32.2112344,57.8395312 37.581375,63.2095312 44.2056563,63.2095312 L44.2056563,59.765625 C39.4835156,59.765625 35.6555156,55.9373437 35.6555156,51.2151562 L32.2112344,51.2151562 Z M44.2056563,63.2095312 L47.6226562,63.2095312 L47.6226562,59.765625 L44.2056563,59.765625 L44.2056563,63.2095312 Z" id="Shape" fill="#FFFFFF" fill-rule="nonzero"></path>
        <line x1="68.4707812" y1="61.4878125" x2="78.7082812" y2="61.4878125" id="Path" stroke="#FFFFFF" stroke-width="3.4534801" stroke-linecap="round" stroke-linejoin="round"></line>
        <path d="M54.5990625,87.3201562 C55.5496875,87.3201562 56.32125,88.0917187 56.32125,89.0423437 C56.32125,89.9939062 55.5496875,90.7645312 54.5990625,90.7645312 C53.6489062,90.7645312 52.876875,89.9939062 52.876875,89.0423437 C52.876875,88.0917187 53.6489062,87.3201562 54.5990625,87.3201562 Z" id="Path" fill="#BCBCBC"></path>
        <path d="M61.4878125,87.3201562 C62.4379687,87.3201562 63.21,88.0917187 63.21,89.0423437 C63.21,89.9939062 62.4379687,90.7645312 61.4878125,90.7645312 C60.5376562,90.7645312 59.765625,89.9939062 59.765625,89.0423437 C59.765625,88.0917187 60.5376562,87.3201562 61.4878125,87.3201562 Z" id="Path" fill="#BCBCBC"></path>
        <line x1="76.9954688" y1="89.0535938" x2="75.2517187" y2="89.1107813" id="Path" stroke="#BCBCBC" stroke-width="3.4534801" stroke-linecap="round"></line>
    </g>
</svg>