<svg width="120" height="120" viewBox="0 0 120 120" fill="none" xmlns="http://www.w3.org/2000/svg">
<path d="M0 0H120V120H0V0Z" fill="#161616"/>
<path d="M94.3031 57.4404L92.0563 58.8627L91.9508 61.4767C91.9284 62.0029 91.6113 62.4669 91.1217 62.6881C91.0757 62.7089 91.0288 62.7268 90.9811 62.7426C90.5294 62.8921 90.0328 62.8066 89.6589 62.5055L87.6155 60.8563L85.0608 61.5928C84.5463 61.7424 84.0038 61.5971 83.6434 61.2111C83.283 60.825 83.1816 60.2782 83.3806 59.7783L84.3657 57.3381L82.8932 55.1835C82.5928 54.7477 82.5743 54.19 82.8435 53.7296C83.1105 53.27 83.6102 53.0022 84.1443 53.0302L86.7968 53.1696L88.4431 51.0982L88.4453 51.0974C88.7804 50.6781 89.3113 50.4859 89.8377 50.5902C90.3617 50.6966 90.7687 51.0806 90.8954 51.5836L91.5483 54.1119L94.0408 54.9894C94.5442 55.1666 94.8917 55.6021 94.9468 56.1275C95.0025 56.6529 94.7563 57.1544 94.3021 57.4413L94.3031 57.4404Z" fill="white"/>
<path d="M81.3328 50.0093L79.7468 51.0132L79.6724 52.8584C79.6566 53.2298 79.4327 53.5573 79.0872 53.7135C79.0547 53.7281 79.0216 53.7408 78.9879 53.7519C78.6691 53.8574 78.3185 53.7971 78.0546 53.5845L76.6122 52.4204L74.8089 52.9403C74.4457 53.0459 74.0628 52.9433 73.8084 52.6708C73.554 52.3983 73.4825 52.0124 73.6229 51.6595L74.3183 49.937L73.2789 48.4161C73.0669 48.1085 73.0538 47.7148 73.2438 47.3899C73.4323 47.0654 73.785 46.8764 74.162 46.8962L76.0343 46.9946L77.1964 45.5324L77.198 45.5319C77.4345 45.2359 77.8092 45.1002 78.1808 45.1738C78.5507 45.2489 78.838 45.52 78.9274 45.8751L79.3883 47.6597L81.1477 48.2791C81.503 48.4042 81.7483 48.7116 81.7872 49.0825C81.8266 49.4533 81.6527 49.8073 81.3321 50.0098L81.3328 50.0093Z" fill="white"/>
<path d="M80.6103 58.8102C80.5605 59.5221 80.1552 60.1257 79.579 60.4573C79.2363 60.6546 78.8344 60.7547 78.4109 60.7274L54.879 59.1287C53.7426 59.0498 52.8831 58.0678 52.9593 56.9307C53.0391 55.7959 54.0219 54.9338 55.1573 55.011L78.6892 56.6097C79.8256 56.6885 80.6851 57.6706 80.6089 58.8077L80.6103 58.8102Z" fill="white"/>
<path d="M50.0798 57.3646C50.03 58.0766 49.6246 58.6802 49.0485 59.0118C48.7057 59.209 48.3038 59.3092 47.8803 59.2818L24.3485 57.6831C23.2121 57.6043 22.3526 56.6222 22.4288 55.4851C22.5086 54.3503 23.4914 53.4883 24.6268 53.5654L48.1587 55.1642C49.2951 55.243 50.1546 56.225 50.0783 57.3622L50.0798 57.3646Z" fill="white"/>
<path d="M68.1977 50.1144C68.1479 50.8263 67.7426 51.4299 67.1664 51.7615C66.8237 51.9588 66.4218 52.0589 65.9983 52.0316L42.4664 50.4329C41.33 50.354 40.4705 49.372 40.5467 48.2349C40.6265 47.1001 41.6093 46.238 42.7447 46.3152L66.2766 47.9139C67.413 47.9927 68.2725 48.9748 68.1963 50.1119L68.1977 50.1144Z" fill="white"/>
<path d="M108.277 69.263L105.553 70.9871L105.425 74.1561C105.398 74.7939 105.013 75.3565 104.42 75.6246C104.364 75.6497 104.307 75.6715 104.25 75.6906C103.702 75.8719 103.1 75.7682 102.647 75.4032L100.169 73.4039L97.0725 74.2968C96.4487 74.4782 95.791 74.302 95.3542 73.834C94.9173 73.366 94.7944 72.7032 95.0355 72.0971L96.2298 69.1389L94.4447 66.527C94.0806 65.9987 94.0581 65.3225 94.3845 64.7645C94.7082 64.2073 95.3139 63.8826 95.9614 63.9166L99.1769 64.0855L101.173 61.5744L101.175 61.5735C101.582 61.0651 102.225 60.8322 102.863 60.9586C103.499 61.0875 103.992 61.5531 104.146 62.1629L104.937 65.2279L107.959 66.2917C108.569 66.5065 108.99 67.0344 109.057 67.6714C109.125 68.3082 108.826 68.9162 108.275 69.264L108.277 69.263Z" fill="white"/>
<path d="M92.9213 68.7299C92.8715 69.4418 92.4662 70.0454 91.89 70.377C91.5473 70.5742 91.1454 70.6744 90.7219 70.647L67.19 69.0483C66.0536 68.9695 65.1941 67.9874 65.2704 66.8503C65.3501 65.7156 66.3329 64.8535 67.4684 64.9307L91.0002 66.5294C92.1366 66.6082 92.9961 67.5903 92.9199 68.7274L92.9213 68.7299Z" fill="white"/>
<path d="M68.9589 67.2836C68.9091 67.9955 68.5038 68.5991 67.9276 68.9307C67.5849 69.128 67.183 69.2281 66.7595 69.2008L43.2276 67.602C42.0912 67.5232 41.2317 66.5411 41.308 65.404C41.3877 64.2693 42.3705 63.4072 43.506 63.4844L67.0378 65.0831C68.1742 65.1619 69.0337 66.144 68.9575 67.2811L68.9589 67.2836Z" fill="white"/>
<path d="M37.3976 65.0663C37.3478 65.7782 36.9425 66.3818 36.3663 66.7134C36.0236 66.9107 35.6217 67.0108 35.1982 66.9835L11.6663 65.3848C10.5299 65.3059 9.67045 64.3239 9.74668 63.1868C9.82646 62.052 10.8092 61.1899 11.9447 61.2671L35.4766 62.8658C36.613 62.9446 37.4724 63.9267 37.3962 65.0638L37.3976 65.0663Z" fill="white"/>
</svg>
